<?xml version="1.0" encoding="utf-8"?>
<!-- Generator: Adobe Illustrator 28.2.0, SVG Export Plug-In . SVG Version: 6.00 Build 0)  -->
<svg version="1.1" id="Layer_1" xmlns="http://www.w3.org/2000/svg" xmlns:xlink="http://www.w3.org/1999/xlink" x="0px" y="0px"
	 viewBox="0 0 612 792" style="enable-background:new 0 0 612 792;" xml:space="preserve">
<style type="text/css">
	.st0{fill:#FFFFFF;}
	.st1{fill:none;stroke:#000000;stroke-width:0.5;stroke-miterlimit:2;}
	.st2{fill:#F8F8F8;stroke:#000000;stroke-width:0.5;stroke-miterlimit:2;}
	.st3{font-family:'Times-Roman';}
	.st4{font-size:8px;}
	.st5{fill:#EDD8D5;stroke:#B21400;stroke-width:0.5;stroke-miterlimit:2;}
	.st6{font-size:10.5px;}
	.st7{fill:#EDDCD5;stroke:#B23200;stroke-width:0.5;stroke-miterlimit:2;}
	.st8{font-size:12px;}
	.st9{fill:none;stroke:#B23200;stroke-miterlimit:2;}
	.st10{fill:#B23200;stroke:#B23200;stroke-miterlimit:2;}
	.st11{font-size:7px;}
	.st12{fill:#EDE9E5;stroke:#B29877;stroke-width:0.5;stroke-miterlimit:2;}
	.st13{fill:none;stroke:#B29877;stroke-width:0.5;stroke-miterlimit:2;}
	.st14{fill:#B29877;stroke:#B29877;stroke-width:0.5;stroke-miterlimit:2;}
	.st15{font-size:4px;}
	.st16{fill:#EDD6D5;stroke:#B20B00;stroke-width:0.5;stroke-miterlimit:2;}
	.st17{fill:none;stroke:#B20B00;stroke-width:2.5;stroke-miterlimit:2;}
	.st18{fill:#B20B00;stroke:#B20B00;stroke-width:2.5;stroke-miterlimit:2;}
	.st19{fill:#EDD7D5;stroke:#B20F00;stroke-width:0.5;stroke-miterlimit:2;}
	.st20{fill:#EDE4DD;stroke:#B2713B;stroke-width:0.5;stroke-miterlimit:2;}
	.st21{fill:none;stroke:#B2713B;stroke-width:0.5;stroke-miterlimit:2;}
	.st22{fill:#B2713B;stroke:#B2713B;stroke-width:0.5;stroke-miterlimit:2;}
	.st23{fill:#EDD8D5;stroke:#B21900;stroke-width:0.5;stroke-miterlimit:2;}
	.st24{fill:none;stroke:#B21900;stroke-width:2;stroke-miterlimit:2;}
	.st25{fill:#B21900;stroke:#B21900;stroke-width:2;stroke-miterlimit:2;}
	.st26{fill:none;stroke:#B20F00;stroke-width:2;stroke-miterlimit:2;}
	.st27{fill:#B20F00;stroke:#B20F00;stroke-width:2;stroke-miterlimit:2;}
	.st28{fill:none;stroke:#B21400;stroke-width:2;stroke-miterlimit:2;}
	.st29{fill:#B21400;stroke:#B21400;stroke-width:2;stroke-miterlimit:2;}
	.st30{font-size:9.5px;}
</style>
<script  type="text/ecmascript">
	<![CDATA[
/**
 *  SVGPan library 1.2.2
 * ======================
 *
 * Given an unique existing element with id "viewport" (or when missing, the
 * first g-element), including the library into any SVG adds the following
 * capabilities:
 *
 *  - Mouse panning
 *  - Mouse zooming (using the wheel)
 *  - Object dragging
 *
 * You can configure the behaviour of the pan/zoom/drag with the variables
 * listed in the CONFIGURATION section of this file.
 *
 * Known issues:
 *
 *  - Zooming (while panning) on Safari has still some issues
 *
 * Releases:
 *
 * 1.2.2, Tue Aug 30 17:21:56 CEST 2011, Andrea Leofreddi
 *	- Fixed viewBox on root tag (#7)
 *	- Improved zoom speed (#2)
 *
 * 1.2.1, Mon Jul  4 00:33:18 CEST 2011, Andrea Leofreddi
 *	- Fixed a regression with mouse wheel (now working on Firefox 5)
 *	- Working with viewBox attribute (#4)
 *	- Added "use strict;" and fixed resulting warnings (#5)
 *	- Added configuration variables, dragging is disabled by default (#3)
 *
 * 1.2, Sat Mar 20 08:42:50 GMT 2010, Zeng Xiaohui
 *	Fixed a bug with browser mouse handler interaction
 *
 * 1.1, Wed Feb  3 17:39:33 GMT 2010, Zeng Xiaohui
 *	Updated the zoom code to support the mouse wheel on Safari/Chrome
 *
 * 1.0, Andrea Leofreddi
 *	First release
 *
 * This code is licensed under the following BSD license:
 *
 * Copyright 2009-2017 Andrea Leofreddi <a.leofreddi@vleo.net>. All rights reserved.
 *
 * Redistribution and use in source and binary forms, with or without modification, are
 * permitted provided that the following conditions are met:
 *
 *    1. Redistributions of source code must retain the above copyright
 *       notice, this list of conditions and the following disclaimer.
 *    2. Redistributions in binary form must reproduce the above copyright
 *       notice, this list of conditions and the following disclaimer in the
 *       documentation and/or other materials provided with the distribution.
 *    3. Neither the name of the copyright holder nor the names of its
 *       contributors may be used to endorse or promote products derived from
 *       this software without specific prior written permission.
 *
 * THIS SOFTWARE IS PROVIDED BY COPYRIGHT HOLDERS AND CONTRIBUTORS ''AS IS'' AND ANY EXPRESS
 * OR IMPLIED WARRANTIES, INCLUDING, BUT NOT LIMITED TO, THE IMPLIED WARRANTIES OF MERCHANTABILITY
 * AND FITNESS FOR A PARTICULAR PURPOSE ARE DISCLAIMED. IN NO EVENT SHALL COPYRIGHT HOLDERS OR
 * CONTRIBUTORS BE LIABLE FOR ANY DIRECT, INDIRECT, INCIDENTAL, SPECIAL, EXEMPLARY, OR
 * CONSEQUENTIAL DAMAGES (INCLUDING, BUT NOT LIMITED TO, PROCUREMENT OF SUBSTITUTE GOODS OR
 * SERVICES; LOSS OF USE, DATA, OR PROFITS; OR BUSINESS INTERRUPTION) HOWEVER CAUSED AND ON
 * ANY THEORY OF LIABILITY, WHETHER IN CONTRACT, STRICT LIABILITY, OR TORT (INCLUDING
 * NEGLIGENCE OR OTHERWISE) ARISING IN ANY WAY OUT OF THE USE OF THIS SOFTWARE, EVEN IF
 * ADVISED OF THE POSSIBILITY OF SUCH DAMAGE.
 *
 * The views and conclusions contained in the software and documentation are those of the
 * authors and should not be interpreted as representing official policies, either expressed
 * or implied, of Andrea Leofreddi.
 */

"use strict";

/// CONFIGURATION
/// ====>

var enablePan = 1; // 1 or 0: enable or disable panning (default enabled)
var enableZoom = 1; // 1 or 0: enable or disable zooming (default enabled)
var enableDrag = 0; // 1 or 0: enable or disable dragging (default disabled)
var zoomScale = 0.2; // Zoom sensitivity

/// <====
/// END OF CONFIGURATION

var root = document.documentElement;

var state = 'none', svgRoot = null, stateTarget, stateOrigin, stateTf;

setupHandlers(root);

/**
 * Register handlers
 */
function setupHandlers(root){
	setAttributes(root, {
		"onmouseup" : "handleMouseUp(evt)",
		"onmousedown" : "handleMouseDown(evt)",
		"onmousemove" : "handleMouseMove(evt)",
		//"onmouseout" : "handleMouseUp(evt)", // Decomment this to stop the pan functionality when dragging out of the SVG element
	});

	if(navigator.userAgent.toLowerCase().indexOf('webkit') >= 0)
		window.addEventListener('mousewheel', handleMouseWheel, false); // Chrome/Safari
	else
		window.addEventListener('DOMMouseScroll', handleMouseWheel, false); // Others
}

/**
 * Retrieves the root element for SVG manipulation. The element is then cached into the svgRoot global variable.
 */
function getRoot(root) {
	if(svgRoot == null) {
		var r = root.getElementById("viewport") ? root.getElementById("viewport") : root.documentElement, t = r;

		while(t != root) {
			if(t.getAttribute("viewBox")) {
				setCTM(r, t.getCTM());

				t.removeAttribute("viewBox");
			}

			t = t.parentNode;
		}

		svgRoot = r;
	}

	return svgRoot;
}

/**
 * Instance an SVGPoint object with given event coordinates.
 */
function getEventPoint(evt) {
	var p = root.createSVGPoint();

	p.x = evt.clientX;
	p.y = evt.clientY;

	return p;
}

/**
 * Sets the current transform matrix of an element.
 */
function setCTM(element, matrix) {
	var s = "matrix(" + matrix.a + "," + matrix.b + "," + matrix.c + "," + matrix.d + "," + matrix.e + "," + matrix.f + ")";

	element.setAttribute("transform", s);
}

/**
 * Dumps a matrix to a string (useful for debug).
 */
function dumpMatrix(matrix) {
	var s = "[ " + matrix.a + ", " + matrix.c + ", " + matrix.e + "\n  " + matrix.b + ", " + matrix.d + ", " + matrix.f + "\n  0, 0, 1 ]";

	return s;
}

/**
 * Sets attributes of an element.
 */
function setAttributes(element, attributes){
	for (var i in attributes)
		element.setAttributeNS(null, i, attributes[i]);
}

/**
 * Handle mouse wheel event.
 */
function handleMouseWheel(evt) {
	if(!enableZoom)
		return;

	if(evt.preventDefault)
		evt.preventDefault();

	evt.returnValue = false;

	var svgDoc = evt.target.ownerDocument;

	var delta;

	if(evt.wheelDelta)
		delta = evt.wheelDelta / 360; // Chrome/Safari
	else
		delta = evt.detail / -9; // Mozilla

	var z = Math.pow(1 + zoomScale, delta);

	var g = getRoot(svgDoc);
	
	var p = getEventPoint(evt);

	p = p.matrixTransform(g.getCTM().inverse());

	// Compute new scale matrix in current mouse position
	var k = root.createSVGMatrix().translate(p.x, p.y).scale(z).translate(-p.x, -p.y);

        setCTM(g, g.getCTM().multiply(k));

	if(typeof(stateTf) == "undefined")
		stateTf = g.getCTM().inverse();

	stateTf = stateTf.multiply(k.inverse());
}

/**
 * Handle mouse move event.
 */
function handleMouseMove(evt) {
	if(evt.preventDefault)
		evt.preventDefault();

	evt.returnValue = false;

	var svgDoc = evt.target.ownerDocument;

	var g = getRoot(svgDoc);

	if(state == 'pan' && enablePan) {
		// Pan mode
		var p = getEventPoint(evt).matrixTransform(stateTf);

		setCTM(g, stateTf.inverse().translate(p.x - stateOrigin.x, p.y - stateOrigin.y));
	} else if(state == 'drag' && enableDrag) {
		// Drag mode
		var p = getEventPoint(evt).matrixTransform(g.getCTM().inverse());

		setCTM(stateTarget, root.createSVGMatrix().translate(p.x - stateOrigin.x, p.y - stateOrigin.y).multiply(g.getCTM().inverse()).multiply(stateTarget.getCTM()));

		stateOrigin = p;
	}
}

/**
 * Handle click event.
 */
function handleMouseDown(evt) {
	if(evt.preventDefault)
		evt.preventDefault();

	evt.returnValue = false;

	var svgDoc = evt.target.ownerDocument;

	var g = getRoot(svgDoc);

	if(
		evt.target.tagName == "svg"
		|| !enableDrag // Pan anyway when drag is disabled and the user clicked on an element
	) {
		// Pan mode
		state = 'pan';

		stateTf = g.getCTM().inverse();

		stateOrigin = getEventPoint(evt).matrixTransform(stateTf);
	} else {
		// Drag mode
		state = 'drag';

		stateTarget = evt.target;

		stateTf = g.getCTM().inverse();

		stateOrigin = getEventPoint(evt).matrixTransform(stateTf);
	}
}

/**
 * Handle mouse button release event.
 */
function handleMouseUp(evt) {
	if(evt.preventDefault)
		evt.preventDefault();

	evt.returnValue = false;

	var svgDoc = evt.target.ownerDocument;

	if(state == 'pan' || state == 'drag') {
		// Quit pan mode
		state = '';
	}
}

		]]>
</script>
<g id="viewport" transform="scale(0.5,0.5) translate(0,0)">
	<g id="graph0" transform="scale(1 1) rotate(0) translate(4 1513.5)">
		<polygon class="st0" points="-4,4 -4,-1513.5 807.1,-1513.5 807.1,4 		"/>
		<g id="clust1">
			<polygon class="st1" points="8,-1346 8,-1501.5 426,-1501.5 426,-1346 			"/>
		</g>
		<g id="node1">
			<g id="a_node1">
				<a>
					<polygon class="st2" points="417.8,-1493.5 16.2,-1493.5 16.2,-1354 417.8,-1354 					"/>
					<text transform="matrix(2 0 0 2 24.25 -1474.2998)" class="st3 st4">File: zk13</text>
					<text transform="matrix(2 0 0 2 24.25 -1455.5498)" class="st3 st4">Type: cpu</text>
					<text transform="matrix(2 0 0 2 24.25 -1436.7998)" class="st3 st4">Time: Mar 5, 2024 at 1:55pm (EST)</text>
					<text transform="matrix(2 0 0 2 24.25 -1418.0498)" class="st3 st4">Duration: 301.72ms, Total samples = 150ms (49.71%)</text>
					<text transform="matrix(2 0 0 2 24.25 -1399.2998)" class="st3 st4">Showing nodes accounting for 150ms, 100% of 150ms total</text>
					<text transform="matrix(2 0 0 2 24.25 -1361.5498)" class="st3 st4">See https://git.io/JfYMW for how to read the graph</text>
				</a>
			</g>
		</g>
		<g id="node1_00000026844457911581569790000006703961235618748850_">
			<g id="a_node1_00000100372504741793275580000008043882001469065659_">
				<a>
					<polygon class="st5" points="567,-402.8 389,-402.8 389,-274.8 567,-274.8 					"/>
					<text transform="matrix(2 0 0 2 464.583 -378.8008)" class="st3 st6">big</text>
					<text transform="matrix(2 0 0 2 465.1719 -354.8008)" class="st3 st6">nat</text>
					<text transform="matrix(2 0 0 2 424.3418 -330.8008)" class="st3 st6">montgomery</text>
					<text transform="matrix(2 0 0 2 413.2568 -306.8008)" class="st3 st6">30ms (20.00%)</text>
					<text transform="matrix(2 0 0 2 396.6348 -282.8008)" class="st3 st6">of 100ms (66.67%)</text>
				</a>
			</g>
		</g>
		<g id="node3">
			<g id="a_node3">
				<a>
					<polygon class="st7" points="560.2,-205.8 395.8,-205.8 395.8,-116.8 560.2,-116.8 					"/>
					<text transform="matrix(2 0 0 2 462.666 -178.9492)" class="st3 st8">big</text>
					<text transform="matrix(2 0 0 2 412.0117 -151.9492)" class="st3 st8">addMulVVW</text>
					<text transform="matrix(2 0 0 2 404.0078 -124.9492)" class="st3 st8">50ms (33.33%)</text>
				</a>
			</g>
		</g>
		<g id="edge10">
			<g id="a_edge10">
				<a>
					<path class="st9" d="M478-274.4c0,18.2,0,37.8,0,55.6"/>
					<polygon class="st10" points="481.5,-219 478,-209 474.5,-219 					"/>
				</a>
			</g>
			<g id="a_edge10-label">
				<a>
					<text transform="matrix(2 0 0 2 479.7109 -235.1992)" class="st3 st11">50ms</text>
				</a>
			</g>
		</g>
		<g id="node9">
			<g id="a_node9">
				<a>
					<polygon class="st12" points="283.8,-193.4 176.2,-193.4 176.2,-129.1 283.8,-129.1 					"/>
					<text transform="matrix(2 0 0 2 219.7773 -174.1797)" class="st3 st4">big</text>
					<text transform="matrix(2 0 0 2 207.332 -155.4297)" class="st3 st4">subVV</text>
					<text transform="matrix(2 0 0 2 184.6719 -136.6797)" class="st3 st4">10ms (6.67%)</text>
				</a>
			</g>
		</g>
		<g id="edge27">
			<g id="a_edge27">
				<a>
					<path class="st13" d="M388.7-282.1c-12.7,8.3-25.5,17-37.4,25.4c-24.9,17.6-51.7,38.3-73.8,55.9"/>
					<polygon class="st14" points="279.8,-198.3 269.8,-194.8 275.4,-203.8 					"/>
				</a>
			</g>
			<g id="a_edge27-label">
				<a>
					<text transform="matrix(2 0 0 2 353.7109 -235.1992)" class="st3 st11">10ms</text>
				</a>
			</g>
		</g>
		<g id="node20">
			<g id="a_node20">
				<a>
					<polygon class="st12" points="378,-184.8 302,-184.8 302,-137.8 378,-137.8 					"/>
					<text transform="matrix(2 0 0 2 334.8887 -173.1504)" class="st3 st15">big</text>
					<text transform="matrix(2 0 0 2 335.1133 -163.4004)" class="st3 st15">nat</text>
					<text transform="matrix(2 0 0 2 332.2305 -153.6504)" class="st3 st15">clear</text>
					<text transform="matrix(2 0 0 2 310.0039 -143.9004)" class="st3 st15">0 of 10ms (6.67%)</text>
				</a>
			</g>
		</g>
		<g id="edge26">
			<g id="a_edge26">
				<a>
					<path class="st13" d="M428.2-274.4c-21.5,27.3-45.7,58.1-63.3,80.4"/>
					<polygon class="st14" points="367.7,-191.8 358.8,-186.1 362.2,-196.1 					"/>
				</a>
			</g>
			<g id="a_edge26-label">
				<a>
					<text transform="matrix(2 0 0 2 420.5811 -243.4492)" class="st3 st11">10ms</text>
					<text transform="matrix(2 0 0 2 415.1465 -226.9492)" class="st3 st11">(inline)</text>
				</a>
			</g>
		</g>
		<g id="node2">
			<g id="a_node2">
				<a>
					<polygon class="st16" points="519.8,-1442.4 436.2,-1442.4 436.2,-1405.1 519.8,-1405.1 					"/>
					<text transform="matrix(2 0 0 2 465.5586 -1430.7803)" class="st3 st15">runtime</text>
					<text transform="matrix(2 0 0 2 470.002 -1421.0303)" class="st3 st15">main</text>
					<text transform="matrix(2 0 0 2 444.0039 -1411.2803)" class="st3 st15">0 of 120ms (80.00%)</text>
				</a>
			</g>
		</g>
		<g id="node5">
			<g id="a_node5">
				<a>
					<polygon class="st16" points="519.8,-1291.8 436.2,-1291.8 436.2,-1254.5 519.8,-1254.5 					"/>
					<text transform="matrix(2 0 0 2 470.002 -1280.1504)" class="st3 st15">main</text>
					<text transform="matrix(2 0 0 2 470.002 -1270.4004)" class="st3 st15">main</text>
					<text transform="matrix(2 0 0 2 444.0039 -1260.6504)" class="st3 st15">0 of 120ms (80.00%)</text>
				</a>
			</g>
		</g>
		<g id="edge1">
			<g id="a_edge1">
				<a>
					<path class="st17" d="M478-1404.8c0,23.9,0,66.6,0,96.7"/>
					<polygon class="st18" points="482.4,-1308.3 478,-1298.3 473.6,-1308.3 					"/>
				</a>
			</g>
			<g id="a_edge1-label">
				<a>
					<text transform="matrix(2 0 0 2 479.5811 -1322.7002)" class="st3 st11">120ms</text>
				</a>
			</g>
		</g>
		<g id="node4">
			<g id="a_node4">
				<a>
					<polygon class="st19" points="519.8,-831.1 436.2,-831.1 436.2,-784.1 519.8,-784.1 					"/>
					<text transform="matrix(2 0 0 2 472.8887 -819.5195)" class="st3 st15">big</text>
					<text transform="matrix(2 0 0 2 468.8926 -809.7695)" class="st3 st15">(*Int)</text>
					<text transform="matrix(2 0 0 2 454.002 -800.0195)" class="st3 st15">ProbablyPrime</text>
					<text transform="matrix(2 0 0 2 444.1504 -790.2695)" class="st3 st15">0 of 110ms (73.33%)</text>
				</a>
			</g>
		</g>
		<g id="node25">
			<g id="a_node25">
				<a>
					<polygon class="st20" points="631.4,-718.5 548.6,-718.5 548.6,-671.5 631.4,-671.5 					"/>
					<text transform="matrix(2 0 0 2 584.8887 -706.9004)" class="st3 st15">big</text>
					<text transform="matrix(2 0 0 2 585.1133 -697.1504)" class="st3 st15">nat</text>
					<text transform="matrix(2 0 0 2 556.6758 -687.4004)" class="st3 st15">probablyPrimeLucas</text>
					<text transform="matrix(2 0 0 2 558.0039 -677.6504)" class="st3 st15">0 of 20ms (13.33%)</text>
				</a>
			</g>
		</g>
		<g id="edge11">
			<g id="a_edge11">
				<a>
					<path class="st21" d="M501.2-783.7c16.7,16.5,39.3,38.8,57.6,56.9"/>
					<polygon class="st22" points="561.1,-729.5 565.8,-720 556.2,-724.5 					"/>
				</a>
			</g>
			<g id="a_edge11-label">
				<a>
					<text transform="matrix(2 0 0 2 549.7109 -739.7002)" class="st3 st11">20ms</text>
				</a>
			</g>
		</g>
		<g id="node26">
			<g id="a_node26">
				<a>
					<polygon class="st23" points="529.1,-718.5 426.9,-718.5 426.9,-671.5 529.1,-671.5 					"/>
					<text transform="matrix(2 0 0 2 472.8887 -706.9004)" class="st3 st15">big</text>
					<text transform="matrix(2 0 0 2 473.1133 -697.1504)" class="st3 st15">nat</text>
					<text transform="matrix(2 0 0 2 434.6738 -687.4004)" class="st3 st15">probablyPrimeMillerRabin</text>
					<text transform="matrix(2 0 0 2 446.0039 -677.6504)" class="st3 st15">0 of 90ms (60.00%)</text>
				</a>
			</g>
		</g>
		<g id="edge8">
			<g id="a_edge8">
				<a>
					<path class="st24" d="M478-783.7c0,14.1,0,32.5,0,48.8"/>
					<polygon class="st25" points="481.5,-735 478,-725 474.5,-735 					"/>
				</a>
			</g>
			<g id="a_edge8-label">
				<a>
					<text transform="matrix(2 0 0 2 479.7109 -739.7002)" class="st3 st11">90ms</text>
				</a>
			</g>
		</g>
		<g id="node15">
			<g id="a_node15">
				<a>
					<polygon class="st12" points="418,-1175.8 342,-1175.8 342,-1128.8 418,-1128.8 					"/>
					<text transform="matrix(2 0 0 2 372.002 -1164.1504)" class="st3 st15">main</text>
					<text transform="matrix(2 0 0 2 366.0039 -1154.4004)" class="st3 st15">(*ZK13)</text>
					<text transform="matrix(2 0 0 2 369.3359 -1144.6504)" class="st3 st15">Prover</text>
					<text transform="matrix(2 0 0 2 350.0039 -1134.9004)" class="st3 st15">0 of 10ms (6.67%)</text>
				</a>
			</g>
		</g>
		<g id="edge22">
			<g id="a_edge22">
				<a>
					<path class="st13" d="M462.9-1254c-6.9,8.3-15.2,18.3-22.7,27.3c-11.4,13.8-23.9,29-34.5,42"/>
					<polygon class="st14" points="408.7,-1182.8 399.6,-1177.3 403.3,-1187.3 					"/>
				</a>
			</g>
			<g id="a_edge22-label">
				<a>
					<text transform="matrix(2 0 0 2 442.7109 -1205.2002)" class="st3 st11">10ms</text>
				</a>
			</g>
		</g>
		<g id="node17">
			<g id="a_node17">
				<a>
					<polygon class="st19" points="519.8,-1170.9 436.2,-1170.9 436.2,-1133.6 519.8,-1133.6 					"/>
					<text transform="matrix(2 0 0 2 470.002 -1159.2803)" class="st3 st15">main</text>
					<text transform="matrix(2 0 0 2 461.1152 -1149.5303)" class="st3 st15">NewZK13</text>
					<text transform="matrix(2 0 0 2 444.1504 -1139.7803)" class="st3 st15">0 of 110ms (73.33%)</text>
				</a>
			</g>
		</g>
		<g id="edge5">
			<g id="a_edge5">
				<a>
					<path class="st26" d="M478-1254.1c0,17.7,0,45.2,0,67"/>
					<polygon class="st27" points="481.5,-1187.1 478,-1177.1 474.5,-1187.1 					"/>
				</a>
			</g>
			<g id="a_edge5-label">
				<a>
					<text transform="matrix(2 0 0 2 479.8379 -1205.2002)" class="st3 st11">110ms</text>
				</a>
			</g>
		</g>
		<g id="node6">
			<g id="a_node6">
				<a>
					<polygon class="st5" points="519.8,-619 436.2,-619 436.2,-572 519.8,-572 					"/>
					<text transform="matrix(2 0 0 2 472.8887 -607.4004)" class="st3 st15">big</text>
					<text transform="matrix(2 0 0 2 473.1133 -597.6504)" class="st3 st15">nat</text>
					<text transform="matrix(2 0 0 2 466.4473 -587.9004)" class="st3 st15">expNN</text>
					<text transform="matrix(2 0 0 2 444.0039 -578.1504)" class="st3 st15">0 of 100ms (66.67%)</text>
				</a>
			</g>
		</g>
		<g id="node24">
			<g id="a_node24">
				<a>
					<polygon class="st5" points="519.8,-510.9 436.2,-510.9 436.2,-463.9 519.8,-463.9 					"/>
					<text transform="matrix(2 0 0 2 472.8887 -499.2695)" class="st3 st15">big</text>
					<text transform="matrix(2 0 0 2 473.1133 -489.5195)" class="st3 st15">nat</text>
					<text transform="matrix(2 0 0 2 445.5605 -479.7695)" class="st3 st15">expNNMontgomery</text>
					<text transform="matrix(2 0 0 2 444.0039 -470.0195)" class="st3 st15">0 of 100ms (66.67%)</text>
				</a>
			</g>
		</g>
		<g id="edge6">
			<g id="a_edge6">
				<a>
					<path class="st28" d="M478-571.7c0,13,0,29.7,0,44.7"/>
					<polygon class="st29" points="481.5,-527.2 478,-517.2 474.5,-527.2 					"/>
				</a>
			</g>
			<g id="a_edge6-label">
				<a>
					<text transform="matrix(2 0 0 2 479.5811 -540.6992)" class="st3 st11">100ms</text>
				</a>
			</g>
		</g>
		<g id="node7">
			<g id="a_node7">
				<a>
					<polygon class="st20" points="711.9,-197.9 578.1,-197.9 578.1,-124.6 711.9,-124.6 					"/>
					<text transform="matrix(2 0 0 2 632.8594 -175.8203)" class="st3 st30">big</text>
					<text transform="matrix(2 0 0 2 589.0664 -154.0703)" class="st3 st30">mulAddVWW</text>
					<text transform="matrix(2 0 0 2 586.4229 -132.3203)" class="st3 st30">20ms (13.33%)</text>
				</a>
			</g>
		</g>
		<g id="node8">
			<g id="a_node8">
				<a>
					<polygon class="st20" points="671.9,-844.2 538.1,-844.2 538.1,-771 671.9,-771 					"/>
					<text transform="matrix(2 0 0 2 575.4512 -822.2002)" class="st3 st30">runtime</text>
					<text transform="matrix(2 0 0 2 573.3408 -800.4502)" class="st3 st30">madvise</text>
					<text transform="matrix(2 0 0 2 546.4229 -778.7002)" class="st3 st30">20ms (13.33%)</text>
				</a>
			</g>
		</g>
		<g id="node10">
			<g id="a_node10">
				<a>
					<polygon class="st12" points="424.9,-64.2 255.1,-64.2 255.1,0 424.9,0 					"/>
					<text transform="matrix(2 0 0 2 315.1172 -45.0508)" class="st3 st4">runtime</text>
					<text transform="matrix(2 0 0 2 262.6875 -26.3008)" class="st3 st4">memclrNoHeapPointers</text>
					<text transform="matrix(2 0 0 2 294.6719 -7.5508)" class="st3 st4">10ms (6.67%)</text>
				</a>
			</g>
		</g>
		<g id="node11">
			<g id="a_node11">
				<a>
					<polygon class="st12" points="803.1,-519.5 652.9,-519.5 652.9,-455.2 803.1,-455.2 					"/>
					<text transform="matrix(2 0 0 2 703.1172 -500.3008)" class="st3 st4">runtime</text>
					<text transform="matrix(2 0 0 2 661.3516 -481.5508)" class="st3 st4">pthread_cond_signal</text>
					<text transform="matrix(2 0 0 2 682.6719 -462.8008)" class="st3 st4">10ms (6.67%)</text>
				</a>
			</g>
		</g>
		<g id="node12">
			<g id="a_node12">
				<a>
					<polygon class="st20" points="644.9,-1442.4 565.1,-1442.4 565.1,-1405.1 644.9,-1405.1 					"/>
					<text transform="matrix(2 0 0 2 592.5586 -1430.7803)" class="st3 st15">runtime</text>
					<text transform="matrix(2 0 0 2 585.6699 -1421.0303)" class="st3 st15">systemstack</text>
					<text transform="matrix(2 0 0 2 573.0039 -1411.2803)" class="st3 st15">0 of 20ms (13.33%)</text>
				</a>
			</g>
		</g>
		<g id="node27">
			<g id="a_node27">
				<a>
					<polygon class="st20" points="644.9,-1301.5 565.1,-1301.5 565.1,-1244.8 644.9,-1244.8 					"/>
					<text transform="matrix(2 0 0 2 592.5586 -1289.9004)" class="st3 st15">runtime</text>
					<text transform="matrix(2 0 0 2 589.6738 -1280.1504)" class="st3 st15">(*mheap)</text>
					<text transform="matrix(2 0 0 2 597.2266 -1270.4004)" class="st3 st15">alloc</text>
					<text transform="matrix(2 0 0 2 595.8926 -1260.6504)" class="st3 st15">func1</text>
					<text transform="matrix(2 0 0 2 573.0039 -1250.9004)" class="st3 st15">0 of 20ms (13.33%)</text>
				</a>
			</g>
		</g>
		<g id="edge20">
			<g id="a_edge20">
				<a>
					<path class="st21" d="M605-1404.8c0,22.6,0,61.9,0,91.6"/>
					<polygon class="st22" points="608.5,-1313.5 605,-1303.5 601.5,-1313.5 					"/>
				</a>
			</g>
			<g id="a_edge20-label">
				<a>
					<text transform="matrix(2 0 0 2 606.7109 -1322.7002)" class="st3 st11">20ms</text>
				</a>
			</g>
		</g>
		<g id="node13">
			<g id="a_node13">
				<a>
					<polygon class="st12" points="766,-1442.4 690,-1442.4 690,-1405.1 766,-1405.1 					"/>
					<text transform="matrix(2 0 0 2 715.5586 -1430.7803)" class="st3 st15">runtime</text>
					<text transform="matrix(2 0 0 2 711.5625 -1421.0303)" class="st3 st15">morestack</text>
					<text transform="matrix(2 0 0 2 698.0039 -1411.2803)" class="st3 st15">0 of 10ms (6.67%)</text>
				</a>
			</g>
		</g>
		<g id="node31">
			<g id="a_node31">
				<a>
					<polygon class="st12" points="766,-1291.8 690,-1291.8 690,-1254.5 766,-1254.5 					"/>
					<text transform="matrix(2 0 0 2 715.5586 -1280.1504)" class="st3 st15">runtime</text>
					<text transform="matrix(2 0 0 2 713.1172 -1270.4004)" class="st3 st15">newstack</text>
					<text transform="matrix(2 0 0 2 698.0039 -1260.6504)" class="st3 st15">0 of 10ms (6.67%)</text>
				</a>
			</g>
		</g>
		<g id="edge30">
			<g id="a_edge30">
				<a>
					<path class="st13" d="M728-1404.8c0,25.1,0,71,0,101.2"/>
					<polygon class="st14" points="731.5,-1303.6 728,-1293.6 724.5,-1303.6 					"/>
				</a>
			</g>
			<g id="a_edge30-label">
				<a>
					<text transform="matrix(2 0 0 2 729.7109 -1322.7002)" class="st3 st11">10ms</text>
				</a>
			</g>
		</g>
		<g id="node14">
			<g id="a_node14">
				<a>
					<polygon class="st19" points="519.8,-938.9 436.2,-938.9 436.2,-901.6 519.8,-901.6 					"/>
					<text transform="matrix(2 0 0 2 470.8926 -927.2695)" class="st3 st15">rand</text>
					<text transform="matrix(2 0 0 2 468.4453 -917.5195)" class="st3 st15">Prime</text>
					<text transform="matrix(2 0 0 2 444.1504 -907.7695)" class="st3 st15">0 of 110ms (73.33%)</text>
				</a>
			</g>
		</g>
		<g id="edge2">
			<g id="a_edge2">
				<a>
					<path class="st26" d="M478-901.5c0,14.6,0,35.8,0,54.2"/>
					<polygon class="st27" points="481.5,-847.4 478,-837.4 474.5,-847.4 					"/>
				</a>
			</g>
			<g id="a_edge2-label">
				<a>
					<text transform="matrix(2 0 0 2 479.8379 -865.4502)" class="st3 st11">110ms</text>
				</a>
			</g>
		</g>
		<g id="node18">
			<g id="a_node18">
				<a>
					<polygon class="st12" points="418,-1059.8 342,-1059.8 342,-1012.8 418,-1012.8 					"/>
					<text transform="matrix(2 0 0 2 374.8887 -1048.1504)" class="st3 st15">big</text>
					<text transform="matrix(2 0 0 2 370.8926 -1038.4004)" class="st3 st15">(*Int)</text>
					<text transform="matrix(2 0 0 2 373.5566 -1028.6504)" class="st3 st15">Exp</text>
					<text transform="matrix(2 0 0 2 350.0039 -1018.9004)" class="st3 st15">0 of 10ms (6.67%)</text>
				</a>
			</g>
		</g>
		<g id="edge21">
			<g id="a_edge21">
				<a>
					<path class="st13" d="M380-1128.4c0,16.3,0,38.5,0,57"/>
					<polygon class="st14" points="383.5,-1071.5 380,-1061.5 376.5,-1071.5 					"/>
				</a>
			</g>
			<g id="a_edge21-label">
				<a>
					<text transform="matrix(2 0 0 2 386.5811 -1097.4502)" class="st3 st11">10ms</text>
					<text transform="matrix(2 0 0 2 381.1465 -1080.9502)" class="st3 st11">(inline)</text>
				</a>
			</g>
		</g>
		<g id="node16">
			<g id="a_node16">
				<a>
					<polygon class="st19" points="520.1,-1054.9 435.9,-1054.9 435.9,-1017.6 520.1,-1017.6 					"/>
					<text transform="matrix(2 0 0 2 470.002 -1043.2803)" class="st3 st15">main</text>
					<text transform="matrix(2 0 0 2 444.7559 -1033.5303)" class="st3 st15">GenerateLargePrime</text>
					<text transform="matrix(2 0 0 2 444.1504 -1023.7695)" class="st3 st15">0 of 110ms (73.33%)</text>
				</a>
			</g>
		</g>
		<g id="edge3">
			<g id="a_edge3">
				<a>
					<path class="st26" d="M478-1017.2c0,16.6,0,41.6,0,62"/>
					<polygon class="st27" points="481.5,-955.3 478,-945.3 474.5,-955.3 					"/>
				</a>
			</g>
			<g id="a_edge3-label">
				<a>
					<text transform="matrix(2 0 0 2 479.8379 -973.2002)" class="st3 st11">110ms</text>
				</a>
			</g>
		</g>
		<g id="edge4">
			<g id="a_edge4">
				<a>
					<path class="st26" d="M478-1133.2c0,16.6,0,41.6,0,61.9"/>
					<polygon class="st27" points="481.5,-1071.3 478,-1061.3 474.5,-1071.3 					"/>
				</a>
			</g>
			<g id="a_edge4-label">
				<a>
					<text transform="matrix(2 0 0 2 481.3379 -1097.4502)" class="st3 st11">110ms</text>
					<text transform="matrix(2 0 0 2 479.1465 -1080.9502)" class="st3 st11">(inline)</text>
				</a>
			</g>
		</g>
		<g id="node19">
			<g id="a_node19">
				<a>
					<polygon class="st12" points="418,-943.8 342,-943.8 342,-896.8 418,-896.8 					"/>
					<text transform="matrix(2 0 0 2 374.8887 -932.1504)" class="st3 st15">big</text>
					<text transform="matrix(2 0 0 2 370.8926 -922.4004)" class="st3 st15">(*Int)</text>
					<text transform="matrix(2 0 0 2 374.2246 -912.6504)" class="st3 st15">exp</text>
					<text transform="matrix(2 0 0 2 350.0039 -902.9004)" class="st3 st15">0 of 10ms (6.67%)</text>
				</a>
			</g>
		</g>
		<g id="edge23">
			<g id="a_edge23">
				<a>
					<path class="st13" d="M380-1012.5c0,16.3,0,38.5,0,57"/>
					<polygon class="st14" points="383.5,-955.5 380,-945.5 376.5,-955.5 					"/>
				</a>
			</g>
			<g id="a_edge23-label">
				<a>
					<text transform="matrix(2 0 0 2 381.7109 -973.2002)" class="st3 st11">10ms</text>
				</a>
			</g>
		</g>
		<g id="edge24">
			<g id="a_edge24">
				<a>
					<path class="st13" d="M379.6-896.3c0.1,45.1,4.4,147.5,38.4,224.8c7,15.9,18.2,31.2,29,43.9"/>
					<polygon class="st14" points="449.4,-630.3 453.4,-620.5 444.1,-625.6 					"/>
				</a>
			</g>
			<g id="a_edge24-label">
				<a>
					<text transform="matrix(2 0 0 2 398.7109 -739.7002)" class="st3 st11">10ms</text>
				</a>
			</g>
		</g>
		<g id="edge25">
			<g id="a_edge25">
				<a>
					<path class="st13" d="M340-137.5c0,17,0,40.9,0,61.4"/>
					<polygon class="st14" points="343.5,-76.2 340,-66.2 336.5,-76.2 					"/>
				</a>
			</g>
			<g id="a_edge25-label">
				<a>
					<text transform="matrix(2 0 0 2 341.7109 -85.4492)" class="st3 st11">10ms</text>
				</a>
			</g>
		</g>
		<g id="node21">
			<g id="a_node21">
				<a>
					<polygon class="st20" points="630.9,-619 551.1,-619 551.1,-572 630.9,-572 					"/>
					<text transform="matrix(2 0 0 2 585.8887 -607.4004)" class="st3 st15">big</text>
					<text transform="matrix(2 0 0 2 586.1133 -597.6504)" class="st3 st15">nat</text>
					<text transform="matrix(2 0 0 2 585.8887 -587.9004)" class="st3 st15">div</text>
					<text transform="matrix(2 0 0 2 559.0039 -578.1504)" class="st3 st15">0 of 20ms (13.33%)</text>
				</a>
			</g>
		</g>
		<g id="node23">
			<g id="a_node23">
				<a>
					<polygon class="st20" points="633.9,-510.9 554.1,-510.9 554.1,-463.9 633.9,-463.9 					"/>
					<text transform="matrix(2 0 0 2 588.8887 -499.2695)" class="st3 st15">big</text>
					<text transform="matrix(2 0 0 2 589.1133 -489.5195)" class="st3 st15">nat</text>
					<text transform="matrix(2 0 0 2 579.6328 -479.7695)" class="st3 st15">divLarge</text>
					<text transform="matrix(2 0 0 2 562.0039 -470.0195)" class="st3 st15">0 of 20ms (13.33%)</text>
				</a>
			</g>
		</g>
		<g id="edge12">
			<g id="a_edge12">
				<a>
					<path class="st21" d="M591.6-571.7c0.4,14.4,0.9,33.3,1.4,49.4"/>
					<polygon class="st22" points="596.5,-522.7 593.3,-512.6 589.5,-522.5 					"/>
				</a>
			</g>
			<g id="a_edge12-label">
				<a>
					<text transform="matrix(2 0 0 2 594.7109 -540.6992)" class="st3 st11">20ms</text>
				</a>
			</g>
		</g>
		<g id="node22">
			<g id="a_node22">
				<a>
					<polygon class="st20" points="674.9,-362.2 595.1,-362.2 595.1,-315.2 674.9,-315.2 					"/>
					<text transform="matrix(2 0 0 2 629.8887 -350.6504)" class="st3 st15">big</text>
					<text transform="matrix(2 0 0 2 630.1133 -340.9004)" class="st3 st15">nat</text>
					<text transform="matrix(2 0 0 2 621.002 -331.1504)" class="st3 st15">divBasic</text>
					<text transform="matrix(2 0 0 2 603.0039 -321.4004)" class="st3 st15">0 of 20ms (13.33%)</text>
				</a>
			</g>
		</g>
		<g id="edge13">
			<g id="a_edge13">
				<a>
					<path class="st21" d="M636.3-314.8c1.5,26.6,4.1,71.2,6,105.4"/>
					<polygon class="st22" points="645.8,-210 642.9,-199.8 638.8,-209.6 					"/>
				</a>
			</g>
			<g id="a_edge13-label">
				<a>
					<text transform="matrix(2 0 0 2 642.7109 -235.1992)" class="st3 st11">20ms</text>
				</a>
			</g>
		</g>
		<g id="edge14">
			<g id="a_edge14">
				<a>
					<path class="st21" d="M600.4-463.5c6.8,24.2,17.5,62.6,25.2,90.2"/>
					<polygon class="st22" points="628.9,-374.5 628.2,-364 622.2,-372.6 					"/>
				</a>
			</g>
			<g id="a_edge14-label">
				<a>
					<text transform="matrix(2 0 0 2 613.7109 -423.9492)" class="st3 st11">20ms</text>
				</a>
			</g>
		</g>
		<g id="edge7">
			<g id="a_edge7">
				<a>
					<path class="st28" d="M478-463.5c0,12.3,0,28.2,0,44.5"/>
					<polygon class="st29" points="481.5,-419 478,-409 474.5,-419 					"/>
				</a>
			</g>
			<g id="a_edge7-label">
				<a>
					<text transform="matrix(2 0 0 2 479.5811 -423.9492)" class="st3 st11">100ms</text>
				</a>
			</g>
		</g>
		<g id="edge15">
			<g id="a_edge15">
				<a>
					<path class="st21" d="M590.2-671.4c0.1,12.1,0.3,27.2,0.4,40.7"/>
					<polygon class="st22" points="594.2,-630.9 590.8,-620.8 587.2,-630.8 					"/>
				</a>
			</g>
			<g id="a_edge15-label">
				<a>
					<text transform="matrix(2 0 0 2 592.7109 -640.1992)" class="st3 st11">20ms</text>
				</a>
			</g>
		</g>
		<g id="edge9">
			<g id="a_edge9">
				<a>
					<path class="st24" d="M478-671.4c0,10.8,0,23.9,0,36.2"/>
					<polygon class="st25" points="481.5,-635.4 478,-625.4 474.5,-635.4 					"/>
				</a>
			</g>
			<g id="a_edge9-label">
				<a>
					<text transform="matrix(2 0 0 2 479.7109 -640.1992)" class="st3 st11">90ms</text>
				</a>
			</g>
		</g>
		<g id="node28">
			<g id="a_node28">
				<a>
					<polygon class="st20" points="644.9,-1175.8 565.1,-1175.8 565.1,-1128.8 644.9,-1128.8 					"/>
					<text transform="matrix(2 0 0 2 592.5586 -1164.1504)" class="st3 st15">runtime</text>
					<text transform="matrix(2 0 0 2 589.6738 -1154.4004)" class="st3 st15">(*mheap)</text>
					<text transform="matrix(2 0 0 2 589.2266 -1144.6504)" class="st3 st15">allocSpan</text>
					<text transform="matrix(2 0 0 2 573.0039 -1134.9004)" class="st3 st15">0 of 20ms (13.33%)</text>
				</a>
			</g>
		</g>
		<g id="edge16">
			<g id="a_edge16">
				<a>
					<path class="st21" d="M605-1244.2c0,16.9,0,38.6,0,56.6"/>
					<polygon class="st22" points="608.5,-1187.7 605,-1177.7 601.5,-1187.7 					"/>
				</a>
			</g>
			<g id="a_edge16-label">
				<a>
					<text transform="matrix(2 0 0 2 606.7109 -1205.2002)" class="st3 st11">20ms</text>
				</a>
			</g>
		</g>
		<g id="node35">
			<g id="a_node35">
				<a>
					<polygon class="st20" points="644.9,-1054.9 565.1,-1054.9 565.1,-1017.6 644.9,-1017.6 					"/>
					<text transform="matrix(2 0 0 2 592.5586 -1043.2803)" class="st3 st15">runtime</text>
					<text transform="matrix(2 0 0 2 591.666 -1033.5303)" class="st3 st15">sysUsed</text>
					<text transform="matrix(2 0 0 2 573.0039 -1023.7695)" class="st3 st15">0 of 20ms (13.33%)</text>
				</a>
			</g>
		</g>
		<g id="edge17">
			<g id="a_edge17">
				<a>
					<path class="st21" d="M605-1128.4c0,17.8,0,42.6,0,61.9"/>
					<polygon class="st22" points="608.5,-1066.7 605,-1056.7 601.5,-1066.7 					"/>
				</a>
			</g>
			<g id="a_edge17-label">
				<a>
					<text transform="matrix(2 0 0 2 611.582 -1097.4502)" class="st3 st11">20ms</text>
					<text transform="matrix(2 0 0 2 606.1465 -1080.9502)" class="st3 st11">(inline)</text>
				</a>
			</g>
		</g>
		<g id="node29">
			<g id="a_node29">
				<a>
					<polygon class="st12" points="766,-1170.9 690,-1170.9 690,-1133.6 766,-1133.6 					"/>
					<text transform="matrix(2 0 0 2 715.5586 -1159.2803)" class="st3 st15">runtime</text>
					<text transform="matrix(2 0 0 2 705.7832 -1149.5303)" class="st3 st15">gopreempt_m</text>
					<text transform="matrix(2 0 0 2 698.0039 -1139.7803)" class="st3 st15">0 of 10ms (6.67%)</text>
				</a>
			</g>
		</g>
		<g id="node30">
			<g id="a_node30">
				<a>
					<polygon class="st12" points="766,-1054.9 690,-1054.9 690,-1017.6 766,-1017.6 					"/>
					<text transform="matrix(2 0 0 2 715.5586 -1043.2803)" class="st3 st15">runtime</text>
					<text transform="matrix(2 0 0 2 707.3379 -1033.5303)" class="st3 st15">goschedImpl</text>
					<text transform="matrix(2 0 0 2 698.0039 -1023.7695)" class="st3 st15">0 of 10ms (6.67%)</text>
				</a>
			</g>
		</g>
		<g id="edge28">
			<g id="a_edge28">
				<a>
					<path class="st13" d="M728-1133.2c0,17.8,0,45.4,0,66.5"/>
					<polygon class="st14" points="731.5,-1066.7 728,-1056.7 724.5,-1066.7 					"/>
				</a>
			</g>
			<g id="a_edge28-label">
				<a>
					<text transform="matrix(2 0 0 2 729.7109 -1089.2002)" class="st3 st11">10ms</text>
				</a>
			</g>
		</g>
		<g id="node37">
			<g id="a_node37">
				<a>
					<polygon class="st12" points="766,-938.9 690,-938.9 690,-901.6 766,-901.6 					"/>
					<text transform="matrix(2 0 0 2 715.5586 -927.2695)" class="st3 st15">runtime</text>
					<text transform="matrix(2 0 0 2 717.5605 -917.5195)" class="st3 st15">wakep</text>
					<text transform="matrix(2 0 0 2 698.0039 -907.7695)" class="st3 st15">0 of 10ms (6.67%)</text>
				</a>
			</g>
		</g>
		<g id="edge29">
			<g id="a_edge29">
				<a>
					<path class="st13" d="M728-1017.2c0,17.8,0,45.4,0,66.5"/>
					<polygon class="st14" points="731.5,-950.7 728,-940.7 724.5,-950.7 					"/>
				</a>
			</g>
			<g id="a_edge29-label">
				<a>
					<text transform="matrix(2 0 0 2 729.7109 -973.2002)" class="st3 st11">10ms</text>
				</a>
			</g>
		</g>
		<g id="edge31">
			<g id="a_edge31">
				<a>
					<path class="st13" d="M728-1254.1c0,19,0,49.4,0,71.8"/>
					<polygon class="st14" points="731.5,-1182.6 728,-1172.6 724.5,-1182.6 					"/>
				</a>
			</g>
			<g id="a_edge31-label">
				<a>
					<text transform="matrix(2 0 0 2 734.582 -1213.4502)" class="st3 st11">10ms</text>
					<text transform="matrix(2 0 0 2 729.1465 -1196.9502)" class="st3 st11">(inline)</text>
				</a>
			</g>
		</g>
		<g id="node32">
			<g id="a_node32">
				<a>
					<polygon class="st12" points="766,-713.6 690,-713.6 690,-676.4 766,-676.4 					"/>
					<text transform="matrix(2 0 0 2 715.5586 -702.0195)" class="st3 st15">runtime</text>
					<text transform="matrix(2 0 0 2 708.6738 -692.2695)" class="st3 st15">notewakeup</text>
					<text transform="matrix(2 0 0 2 698.0039 -682.5195)" class="st3 st15">0 of 10ms (6.67%)</text>
				</a>
			</g>
		</g>
		<g id="node33">
			<g id="a_node33">
				<a>
					<polygon class="st12" points="766,-614.1 690,-614.1 690,-576.9 766,-576.9 					"/>
					<text transform="matrix(2 0 0 2 715.5586 -602.5195)" class="st3 st15">runtime</text>
					<text transform="matrix(2 0 0 2 707.3418 -592.7695)" class="st3 st15">semawakeup</text>
					<text transform="matrix(2 0 0 2 698.0039 -583.0195)" class="st3 st15">0 of 10ms (6.67%)</text>
				</a>
			</g>
		</g>
		<g id="edge32">
			<g id="a_edge32">
				<a>
					<path class="st13" d="M728-676.1c0,14.1,0,34,0,50.3"/>
					<polygon class="st14" points="731.5,-626.1 728,-616.1 724.5,-626.1 					"/>
				</a>
			</g>
			<g id="a_edge32-label">
				<a>
					<text transform="matrix(2 0 0 2 729.7109 -640.1992)" class="st3 st11">10ms</text>
				</a>
			</g>
		</g>
		<g id="edge33">
			<g id="a_edge33">
				<a>
					<path class="st13" d="M728-576.5c0,12.5,0,29.6,0,45.5"/>
					<polygon class="st14" points="731.5,-531.3 728,-521.3 724.5,-531.3 					"/>
				</a>
			</g>
			<g id="a_edge33-label">
				<a>
					<text transform="matrix(2 0 0 2 729.7109 -540.6992)" class="st3 st11">10ms</text>
				</a>
			</g>
		</g>
		<g id="node34">
			<g id="a_node34">
				<a>
					<polygon class="st12" points="766,-826.2 690,-826.2 690,-789 766,-789 					"/>
					<text transform="matrix(2 0 0 2 715.5586 -814.6504)" class="st3 st15">runtime</text>
					<text transform="matrix(2 0 0 2 718.002 -804.9004)" class="st3 st15">startm</text>
					<text transform="matrix(2 0 0 2 698.0039 -795.1504)" class="st3 st15">0 of 10ms (6.67%)</text>
				</a>
			</g>
		</g>
		<g id="edge34">
			<g id="a_edge34">
				<a>
					<path class="st13" d="M728-788.8c0,17.1,0,43.2,0,63.4"/>
					<polygon class="st14" points="731.5,-725.6 728,-715.6 724.5,-725.6 					"/>
				</a>
			</g>
			<g id="a_edge34-label">
				<a>
					<text transform="matrix(2 0 0 2 729.7109 -739.7002)" class="st3 st11">10ms</text>
				</a>
			</g>
		</g>
		<g id="node36">
			<g id="a_node36">
				<a>
					<polygon class="st20" points="644.9,-938.9 565.1,-938.9 565.1,-901.6 644.9,-901.6 					"/>
					<text transform="matrix(2 0 0 2 592.5586 -927.2695)" class="st3 st15">runtime</text>
					<text transform="matrix(2 0 0 2 586.5527 -917.5195)" class="st3 st15">sysUsedOS</text>
					<text transform="matrix(2 0 0 2 573.0039 -907.7695)" class="st3 st15">0 of 20ms (13.33%)</text>
				</a>
			</g>
		</g>
		<g id="edge18">
			<g id="a_edge18">
				<a>
					<path class="st21" d="M605-1017.2c0,17.8,0,45.4,0,66.5"/>
					<polygon class="st22" points="608.5,-950.7 605,-940.7 601.5,-950.7 					"/>
				</a>
			</g>
			<g id="a_edge18-label">
				<a>
					<text transform="matrix(2 0 0 2 611.582 -981.4502)" class="st3 st11">20ms</text>
					<text transform="matrix(2 0 0 2 606.1465 -964.9502)" class="st3 st11">(inline)</text>
				</a>
			</g>
		</g>
		<g id="edge19">
			<g id="a_edge19">
				<a>
					<path class="st21" d="M605-901.5c0,12.3,0,29.3,0,45.3"/>
					<polygon class="st22" points="608.5,-856.2 605,-846.2 601.5,-856.2 					"/>
				</a>
			</g>
			<g id="a_edge19-label">
				<a>
					<text transform="matrix(2 0 0 2 606.7109 -865.4502)" class="st3 st11">20ms</text>
				</a>
			</g>
		</g>
		<g id="edge35">
			<g id="a_edge35">
				<a>
					<path class="st13" d="M728-901.5c0,17.1,0,43.2,0,63.4"/>
					<polygon class="st14" points="731.5,-838.2 728,-828.2 724.5,-838.2 					"/>
				</a>
			</g>
			<g id="a_edge35-label">
				<a>
					<text transform="matrix(2 0 0 2 729.7109 -865.4502)" class="st3 st11">10ms</text>
				</a>
			</g>
		</g>
	</g>
</g>
</svg>
